<svg style="width:60% !important; height:80% !important" id="HJmlf7-83DM" data-name="Layer 1" xmlns="http://www.w3.org/2000/svg" viewBox="0 0 54.705 53.071" version="1.1" xmlns:xlink="http://www.w3.org/1999/xlink" xmlns:svgjs="http://svgjs.com/svgjs">
    <title>
        Untitled-1
    </title>
    <g id="Hy4eM7bUhwG_rkZ1fLhwz" data-animator-group="true" data-animator-type="2">
        <path d="M54.039,56.382a14.133,14.133,0,0,1-2.133,7.12,25.668,25.668,0,1,0-24.233-.011,9.885,9.885,0,0,1-1.627-4.024.844.844,0,0,1,.226-.631.835.835,0,0,1,.615-.268h5.9a.844.844,0,0,1,.8.573c.473,1.409,2.522,3.506,6.217,3.506a6.673,6.673,0,0,0,6.665-6.666v-.627a14.248,14.248,0,1,1-6.729-26.841c.022,0,.043,0,.064,0H53.738a.843.843,0,0,1,.843.843v5.71a.842.842,0,0,1-.843.842H52.29A14.189,14.189,0,0,1,54.033,42.2a.73.73,0,0,1,.013.14v13.94a.879.879,0,0,1-.007.1m-23.431,10.2a.854.854,0,0,1-.292-.053,27.353,27.353,0,1,1,18.967,0,.842.842,0,0,1-.869-1.4,12.475,12.475,0,0,0,3.944-8.865c0-.021,0-.042,0-.062V42.451c0-.029,0-.058-.007-.087a12.49,12.49,0,0,0-2.27-6.818.841.841,0,0,1,.69-1.325H52.9V30.2H39.862c-.02,0-.041,0-.063,0a12.563,12.563,0,1,0,7.035,22.971.843.843,0,0,1,1.314.7v2.115A8.357,8.357,0,0,1,39.8,64.329c-3.928,0-6.577-2.018-7.578-4.077H27.943a12.519,12.519,0,0,0,3.185,4.815.843.843,0,0,1-.5,1.512Z" id="Hy4eM7bUhwG" class=""/>
    </g>
    <g id="H1BefXZ8nwM_SyMbM83vf" data-animator-group="true" data-animator-type="2">
        <path d="M39.8,36.1a6.666,6.666,0,1,0,6.665,6.665A6.672,6.672,0,0,0,39.8,36.1m0,15.013a8.349,8.349,0,1,1,8.348-8.348A8.357,8.357,0,0,1,39.8,51.108" id="H1BefXZ8nwM"/>
    </g>
    <defs>
        <style>
            @-webkit-keyframes Hy4eM7bUhwG_Animation{0%{opacity: 1;transform-box: fill-box;-webkit-transform-origin: 50% 50%;transform-origin: 50% 50%;}37.50%{opacity: 0;transform-box: fill-box;-webkit-transform-origin: 50% 50%;transform-origin: 50% 50%;}}@keyframes Hy4eM7bUhwG_Animation{0%{opacity: 1;transform-box: fill-box;-webkit-transform-origin: 50% 50%;transform-origin: 50% 50%;}37.50%{opacity: 0;transform-box: fill-box;-webkit-transform-origin: 50% 50%;transform-origin: 50% 50%;}}@-webkit-keyframes H1BefXZ8nwM_Animation{0%{opacity: 1;transform-box: fill-box;-webkit-transform-origin: 50% 50%;transform-origin: 50% 50%;}37.50%{opacity: 0;transform-box: fill-box;-webkit-transform-origin: 50% 50%;transform-origin: 50% 50%;}}@keyframes H1BefXZ8nwM_Animation{0%{opacity: 1;transform-box: fill-box;-webkit-transform-origin: 50% 50%;transform-origin: 50% 50%;}37.50%{opacity: 0;transform-box: fill-box;-webkit-transform-origin: 50% 50%;transform-origin: 50% 50%;}}@-webkit-keyframes H1BefXZ8nwM_SyMbM83vf_Animation{0%{-webkit-transform: scale(0.9, 0.9);transform: scale(0.9, 0.9);transform-box: fill-box;-webkit-transform-origin: 50% 50%;transform-origin: 50% 50%;}37.50%{-webkit-transform: scale(1, 1);transform: scale(1, 1);transform-box: fill-box;-webkit-transform-origin: 50% 50%;transform-origin: 50% 50%;}75%{-webkit-transform: scale(0.9, 0.9);transform: scale(0.9, 0.9);transform-box: fill-box;-webkit-transform-origin: 50% 50%;transform-origin: 50% 50%;}100%{-webkit-transform: scale(0.9, 0.9);transform: scale(0.9, 0.9);transform-box: fill-box;-webkit-transform-origin: 50% 50%;transform-origin: 50% 50%;}}@keyframes H1BefXZ8nwM_SyMbM83vf_Animation{0%{-webkit-transform: scale(0.9, 0.9);transform: scale(0.9, 0.9);transform-box: fill-box;-webkit-transform-origin: 50% 50%;transform-origin: 50% 50%;}37.50%{-webkit-transform: scale(1, 1);transform: scale(1, 1);transform-box: fill-box;-webkit-transform-origin: 50% 50%;transform-origin: 50% 50%;}75%{-webkit-transform: scale(0.9, 0.9);transform: scale(0.9, 0.9);transform-box: fill-box;-webkit-transform-origin: 50% 50%;transform-origin: 50% 50%;}100%{-webkit-transform: scale(0.9, 0.9);transform: scale(0.9, 0.9);transform-box: fill-box;-webkit-transform-origin: 50% 50%;transform-origin: 50% 50%;}}@-webkit-keyframes Hy4eM7bUhwG_rkZ1fLhwz_Animation{0%{-webkit-transform: scale(0.9, 0.9);transform: scale(0.9, 0.9);transform-box: fill-box;-webkit-transform-origin: 50% 50%;transform-origin: 50% 50%;}37.50%{-webkit-transform: scale(1, 1);transform: scale(1, 1);transform-box: fill-box;-webkit-transform-origin: 50% 50%;transform-origin: 50% 50%;}75%{-webkit-transform: scale(0.9, 0.9);transform: scale(0.9, 0.9);transform-box: fill-box;-webkit-transform-origin: 50% 50%;transform-origin: 50% 50%;}100%{-webkit-transform: scale(0.9, 0.9);transform: scale(0.9, 0.9);transform-box: fill-box;-webkit-transform-origin: 50% 50%;transform-origin: 50% 50%;}}@keyframes Hy4eM7bUhwG_rkZ1fLhwz_Animation{0%{-webkit-transform: scale(0.9, 0.9);transform: scale(0.9, 0.9);transform-box: fill-box;-webkit-transform-origin: 50% 50%;transform-origin: 50% 50%;}37.50%{-webkit-transform: scale(1, 1);transform: scale(1, 1);transform-box: fill-box;-webkit-transform-origin: 50% 50%;transform-origin: 50% 50%;}75%{-webkit-transform: scale(0.9, 0.9);transform: scale(0.9, 0.9);transform-box: fill-box;-webkit-transform-origin: 50% 50%;transform-origin: 50% 50%;}100%{-webkit-transform: scale(0.9, 0.9);transform: scale(0.9, 0.9);transform-box: fill-box;-webkit-transform-origin: 50% 50%;transform-origin: 50% 50%;}}#HJmlf7-83DM *{-webkit-animation-duration: 4s;animation-duration: 4s;-webkit-animation-iteration-count: infinite;animation-iteration-count: infinite;-webkit-animation-timing-function: cubic-bezier(0, 0, 1, 1);animation-timing-function: cubic-bezier(0, 0, 1, 1);}#Hy4eM7bUhwG{fill: #ff1d25;-webkit-transform:  translate(-12.447px, -13.509px);transform:  translate(-12.447px, -13.509px);-webkit-animation-name: Hy4eM7bUhwG_Animation;animation-name: Hy4eM7bUhwG_Animation;}#H1BefXZ8nwM{fill: #ff1d25;-webkit-transform:  translate(-12.447px, -13.509px);transform:  translate(-12.447px, -13.509px);-webkit-animation-name: H1BefXZ8nwM_Animation;animation-name: H1BefXZ8nwM_Animation;}#Hy4eM7bUhwG_rkZ1fLhwz{-webkit-animation-name: Hy4eM7bUhwG_rkZ1fLhwz_Animation;animation-name: Hy4eM7bUhwG_rkZ1fLhwz_Animation;-webkit-animation-timing-function: cubic-bezier(0.42, 0, 0.58, 1);animation-timing-function: cubic-bezier(0.42, 0, 0.58, 1);}#H1BefXZ8nwM_SyMbM83vf{-webkit-animation-name: H1BefXZ8nwM_SyMbM83vf_Animation;animation-name: H1BefXZ8nwM_SyMbM83vf_Animation;-webkit-animation-timing-function: cubic-bezier(0.42, 0, 0.58, 1);animation-timing-function: cubic-bezier(0.42, 0, 0.58, 1);}
        </style>
    </defs>
</svg>